<?xml version="1.0" standalone="no"?><!DOCTYPE svg PUBLIC "-//W3C//DTD SVG 1.1//EN" "http://www.w3.org/Graphics/SVG/1.1/DTD/svg11.dtd"><svg t="1661842087222" class="icon" viewBox="0 0 1024 1024" version="1.1" xmlns="http://www.w3.org/2000/svg" p-id="44031" xmlns:xlink="http://www.w3.org/1999/xlink" width="640" height="640"><path d="M901.632 985.6H122.368c-45.824 0-82.944-37.12-82.944-82.944v-149.248c0-45.824 37.12-82.944 82.944-82.944h268.544c16.896 0 30.72 13.824 30.72 30.72s-13.824 30.72-30.72 30.72H122.368c-11.776 0-21.504 9.728-21.504 21.504v149.248c0 11.776 9.728 21.504 21.504 21.504h779.264c11.776 0 21.504-9.728 21.504-21.504v-149.248c0-11.776-9.728-21.504-21.504-21.504H633.088c-16.896 0-30.72-13.824-30.72-30.72s13.824-30.72 30.72-30.72h268.544c45.824 0 82.944 37.12 82.944 82.944v149.248c0 45.824-37.12 82.944-82.944 82.944z" p-id="44032"></path><path d="M512 830.208c-72.704 0-136.192-51.456-151.296-122.624-3.584-16.64 7.168-32.768 23.808-36.352 16.64-3.584 32.768 7.168 36.352 23.808 8.96 42.752 47.36 73.728 91.136 73.728s82.176-30.976 91.136-73.728c3.584-16.64 19.712-27.136 36.352-23.808 16.64 3.584 27.136 19.712 23.808 36.352-15.104 71.168-78.592 122.624-151.296 122.624z" p-id="44033"></path><path d="M300.8 732.16c-16.896 0-30.72-13.568-30.72-30.72V119.296c0-44.544 36.096-80.896 80.384-80.896h494.592c44.288 0 80.384 36.352 80.384 80.896V701.44c0 16.896-13.824 30.72-30.72 30.72s-30.72-13.824-30.72-30.72V119.296c0-10.752-8.448-19.456-18.944-19.456H350.464c-10.496 0-18.944 8.704-18.944 19.456V701.44c0 16.896-13.824 30.72-30.72 30.72z" p-id="44034"></path><path d="M139.776 731.904c-16.896 0-30.72-13.824-30.72-30.72V195.072c0-44.544 37.12-80.896 82.944-80.896h105.472c16.896 0 30.72 13.824 30.72 30.72s-13.824 30.72-30.72 30.72H192c-11.776 0-21.504 8.704-21.504 19.456v506.112c0 17.152-13.824 30.72-30.72 30.72zM723.968 307.968h-252.416c-16.896 0-30.72-13.824-30.72-30.72v-1.28c0-16.896 13.824-30.72 30.72-30.72h252.416c16.896 0 30.72 13.824 30.72 30.72v1.28c0 17.152-13.824 30.72-30.72 30.72zM723.968 447.232h-252.416c-16.896 0-30.72-13.824-30.72-30.72v-1.28c0-16.896 13.824-30.72 30.72-30.72h252.416c16.896 0 30.72 13.824 30.72 30.72v1.28c0 16.896-13.824 30.72-30.72 30.72z" p-id="44035"></path></svg>