<svg t="1652839796350" class="icon" viewBox="0 0 1024 1024" version="1.1" xmlns="http://www.w3.org/2000/svg" p-id="5830"
  width="200" height="200">
  <path
    d="M757.4016 271.36a251.904 251.904 0 1 0-251.904 251.9552A251.904 251.904 0 0 0 757.4016 271.36z m-251.904 174.5408A174.3872 174.3872 0 1 1 679.8336 271.36a174.592 174.592 0 0 1-174.336 174.5408zM45.2096 792.0128v171.008h404.9408v-81.152H126.3616v-89.856c0-67.584 57.7536-122.5216 128.6656-122.5216h195.1232v-81.152H255.0272c-115.6608 0-209.8176 91.3408-209.8176 203.6736zM966.0416 812.2368a54.8864 54.8864 0 0 1 0-82.8928 37.1712 37.1712 0 0 0 7.6288-46.6432L939.6224 624.64a37.2224 37.2224 0 0 0-43.4176-16.64 58.6752 58.6752 0 0 1-17.8688 2.7648h-0.512a57.6 57.6 0 0 1-56.32-44.3904 37.3248 37.3248 0 0 0-36.352-29.1328h-67.4816a37.2736 37.2736 0 0 0-36.3008 29.0816 57.6512 57.6512 0 0 1-56.32 44.4416H624.64a58.88 58.88 0 0 1-17.664-2.7136A37.2736 37.2736 0 0 0 563.2 624.64l-34.0992 58.112a37.1712 37.1712 0 0 0 7.6288 46.6432 54.8352 54.8352 0 0 1 0 82.8416 37.2224 37.2224 0 0 0-7.6288 46.6944l34.0992 58.0096a37.12 37.12 0 0 0 43.4176 16.5888 60.16 60.16 0 0 1 17.8176-2.7136h0.6144a57.6512 57.6512 0 0 1 56.32 44.3904 37.2736 37.2736 0 0 0 36.3008 29.184h67.5328a37.1712 37.1712 0 0 0 36.3008-29.0816 57.6 57.6 0 0 1 56.32-44.4416h0.5632a59.2384 59.2384 0 0 1 17.7152 2.7136 37.1712 37.1712 0 0 0 43.4688-16.5888l34.0992-58.0608a37.1712 37.1712 0 0 0-7.6288-46.6944z m-72.7552 53.8624a125.184 125.184 0 0 0-62.72 8.3968 122.88 122.88 0 0 0-65.8944 64.0512h-26.368a120.832 120.832 0 0 0-26.624-38.2464 125.0304 125.0304 0 0 0-102.0416-34.3552l-12.8512-21.9136a120.1664 120.1664 0 0 0 0-146.3808l12.8512-21.8624a126.5152 126.5152 0 0 0 62.7712-8.3968 122.112 122.112 0 0 0 65.8432-64.1024h26.3168a120.32 120.32 0 0 0 26.5728 38.2464 125.1328 125.1328 0 0 0 102.1952 34.304l12.8 21.8624a120.2176 120.2176 0 0 0 0 146.3808z"
    p-id="5831"></path>
  <path
    d="M751.5136 680.3968a90.4704 90.4704 0 1 0 90.4704 90.368 90.5216 90.5216 0 0 0-90.5216-90.368z m-26.624 117.0432a37.7344 37.7344 0 1 1 26.624 11.008 37.4272 37.4272 0 0 1-26.624-11.008z"
    p-id="5832"></path>
</svg>