<svg t="1652839780015" class="icon" viewBox="0 0 1024 1024" version="1.1" xmlns="http://www.w3.org/2000/svg" p-id="5695" width="200" height="200"><path d="M512 500.992H174.5408c-93.2352 0-168.96 90.7264-168.96 202.496v283.2384H680.96V703.488c0-111.7696-75.7248-202.496-168.96-202.496z m84.3776 401.3568H90.1632V697.856l0.5632-13.1072c4.8128-55.9104 40.4992-99.3792 83.8144-99.3792H512l9.8816 0.768c41.9328 6.5024 74.496 54.0672 74.496 111.7184zM968.8064 634.88a168.96 168.96 0 0 0-119.3472-49.408h-42.1888a42.1888 42.1888 0 0 0 0 84.3776h42.1888l9.8816 0.5632a84.3776 84.3776 0 0 1 74.496 83.8144v148.48h-126.5664a42.1888 42.1888 0 0 0 0 84.3776h210.944v-232.96a168.96 168.96 0 0 0-49.408-119.2448zM849.6128 447.3344a142.336 142.336 0 1 0-123.2896 71.168 142.336 142.336 0 0 0 123.2896-71.168z m-123.2896-23.7056a47.4624 47.4624 0 1 1 47.4624-47.4624 47.5136 47.5136 0 0 1-47.4624 47.4624zM343.04 417.536a190.1568 190.1568 0 1 0-189.9008-190.1056A190.1056 190.1056 0 0 0 343.04 417.536zM261.12 179.8656a95.1296 95.1296 0 1 1 0 95.0784 95.1296 95.1296 0 0 1 0-95.0784z" p-id="5696"></path></svg>