<?xml version="1.0" standalone="no"?><!DOCTYPE svg PUBLIC "-//W3C//DTD SVG 1.1//EN" "http://www.w3.org/Graphics/SVG/1.1/DTD/svg11.dtd"><svg t="1666142316663" class="icon" viewBox="0 0 1024 1024" version="1.1" xmlns="http://www.w3.org/2000/svg" p-id="4015" width="640" height="640" xmlns:xlink="http://www.w3.org/1999/xlink"><path d="M850.773333 976.213333h-0.853333c-4.266667-0.853333-10.24-1.706667-13.653333-4.266666-3.413333-1.706667-6.826667-5.12-9.386667-8.533334-4.266667-4.266667-9.386667-8.533333-14.506667-12.8-8.533333-8.533333-19.626667-13.653333-31.573333-14.506666-11.093333 0-21.333333 4.266667-28.16 11.946666-6.826667 5.12-13.653333 11.093333-18.773333 16.213334-1.706667 1.706667-4.266667 4.266667-5.973334 5.12-4.266667 2.56-10.24 4.266667-15.36 4.266666-5.973333 0.853333-11.093333-0.853333-15.36-4.266666l-53.76-31.573334c-11.946667-6.826667-17.066667-21.333333-11.946666-34.986666 3.413333-8.533333 5.12-17.066667 5.973333-25.6 0.853333-33.28-24.746667-61.44-58.026667-64-12.8-0.853333-23.04-10.24-25.6-22.186667-6.826667-31.573333-6.826667-64.853333 0-96.426667 2.56-12.8 12.8-21.333333 25.6-22.186666 33.28-2.56 58.88-30.72 58.026667-64-0.853333-8.533333-1.706667-17.92-5.12-25.6-5.12-12.8 0-28.16 11.946667-34.986667l56.32-34.133333c4.266667-3.413333 10.24-4.266667 15.36-3.413334 5.12 0.853333 10.24 1.706667 14.506666 4.266667 2.56 1.706667 5.12 3.413333 6.826667 5.973333 5.12 5.12 10.24 10.24 16.213333 15.36 15.36 17.066667 41.813333 17.92 58.88 2.56 6.826667-5.12 12.8-11.093333 18.773334-16.213333 1.706667-1.706667 4.266667-3.413333 5.973333-5.12 9.386667-5.12 21.333333-5.973333 30.72-0.853333l54.613333 32.426666c11.946667 6.826667 17.066667 21.333333 11.946667 34.986667-3.413333 8.533333-5.12 17.066667-5.12 25.6-0.853333 33.28 24.746667 61.44 58.026667 64 12.8 0.853333 23.04 10.24 25.6 22.186667 6.826667 31.573333 6.826667 64 0 96.426666-2.56 12.8-12.8 21.333333-25.6 23.04-33.28 2.56-58.88 30.72-58.026667 64 0.853333 8.533333 1.706667 17.92 5.12 25.6 5.12 12.8 0 28.16-11.946667 34.986667l-55.466666 32.426667c-5.973333 1.706667-11.093333 3.413333-16.213334 4.266666zM779.946667 878.933333c25.6 0 50.346667 10.24 68.266666 28.16 1.706667 1.706667 4.266667 3.413333 5.973334 5.12l17.92-11.093333c-1.706667-6.826667-1.706667-14.506667-2.56-21.333333-1.706667-54.613333 34.986667-103.253333 87.04-118.613334 0.853333-12.8 0.853333-24.746667 0-36.693333-52.053333-15.36-88.746667-64-87.04-117.76 0-6.826667 0.853333-15.36 2.56-22.186667l-17.92-11.093333c-2.56 1.706667-5.973333 4.266667-8.533334 6.826667-37.546667 34.133333-95.573333 33.28-131.413333-1.706667l-5.973333-5.12-20.48 11.093333c1.706667 6.826667 1.706667 14.506667 2.56 21.333334 0.853333 54.613333-34.986667 103.253333-87.893334 117.76-0.853333 12.8-0.853333 24.746667 0 36.693333 52.053333 15.36 88.746667 64 87.04 117.76 0 6.826667-0.853333 15.36-2.56 22.186667l16.213334 10.24 8.533333-6.826667c19.626667-16.213333 43.52-25.6 68.266667-24.746667z m0 0" p-id="4016"></path><path d="M780.8 835.413333c-57.173333 0-102.4-52.053333-91.306667-110.933333 6.826667-36.693333 36.693333-66.56 73.386667-73.386667 58.88-11.093333 110.933333 34.133333 110.933333 91.306667 0 52.053333-41.813333 93.013333-93.013333 93.013333z m0-128.853333c-23.04 0-40.96 21.333333-35.84 45.226667 3.413333 12.8 13.653333 23.893333 27.306667 27.306666 23.893333 5.973333 45.226667-12.8 45.226666-35.84 0-20.48-16.213333-36.693333-36.693333-36.693333z m0 0M451.413333 831.146667c-18.773333 0-34.133333-15.36-34.133333-34.133334V538.453333c0-18.773333 15.36-34.133333 34.133333-34.133333s34.133333 15.36 34.133334 34.133333v258.56c0 18.773333-15.36 34.133333-34.133334 34.133334z" p-id="4017"></path><path d="M455.68 1007.786667c-23.893333 0-48.64-5.973333-69.973333-18.773334L73.386667 808.96C29.866667 784.213333 3.413333 737.28 3.413333 687.786667V326.826667c0-49.493333 26.453333-96.426667 69.973334-121.173334L385.706667 25.6C429.226667 0.853333 482.133333 0.853333 525.653333 25.6l312.32 180.053333c43.52 24.746667 69.973333 71.68 69.973334 121.173334v110.933333c0 18.773333-15.36 34.133333-34.133334 34.133333s-34.133333-15.36-34.133333-34.133333v-110.933333c0-25.6-13.653333-49.493333-35.84-62.293334L491.52 84.48c-22.186667-12.8-49.493333-12.8-71.68 0L107.52 265.386667a72.021333 72.021333 0 0 0-35.84 62.293333v360.96c0 25.6 13.653333 49.493333 35.84 62.293333l312.32 179.2c22.186667 12.8 49.493333 12.8 71.68 0l52.053333-29.866666c16.213333-9.386667 37.546667-3.413333 46.933334 12.8 9.386667 16.213333 3.413333 37.546667-12.8 46.933333l-52.053334 29.866667c-21.333333 11.946667-45.226667 17.92-69.973333 17.92z" p-id="4018"></path><path d="M451.413333 563.2c-8.533333 0-17.066667-3.413333-23.893333-10.24L244.906667 370.346667c-13.653333-13.653333-13.653333-34.986667 0-48.64 13.653333-13.653333 34.986667-13.653333 48.64 0l182.613333 182.613333c13.653333 13.653333 13.653333 34.986667 0 48.64-6.826667 6.826667-16.213333 10.24-24.746667 10.24z" p-id="4019"></path><path d="M451.413333 563.2c-8.533333 0-17.066667-3.413333-23.893333-10.24-13.653333-13.653333-13.653333-34.986667 0-48.64l182.613333-182.613333c13.653333-13.653333 34.986667-13.653333 48.64 0 13.653333 13.653333 13.653333 34.986667 0 48.64L476.16 552.96c-6.826667 6.826667-16.213333 10.24-24.746667 10.24z" p-id="4020"></path></svg>