<?xml version="1.0" standalone="no"?><!DOCTYPE svg PUBLIC "-//W3C//DTD SVG 1.1//EN" "http://www.w3.org/Graphics/SVG/1.1/DTD/svg11.dtd"><svg t="1667452859433" class="icon" viewBox="0 0 1024 1024" version="1.1" xmlns="http://www.w3.org/2000/svg" p-id="4167" width="640" height="640" xmlns:xlink="http://www.w3.org/1999/xlink"><path d="M1001.817999 457.504687l-104.938138-104.938138V204.117476c0-42.65778-34.126224-76.784003-76.784003-76.784004H671.646785L566.708647 22.395334c-29.860446-29.860446-78.490315-29.860446-108.35076 0L352.566593 127.333472H204.11752c-42.65778 0-76.784003 34.126224-76.784003 76.784004v148.449073L22.395379 457.504687c-29.860446 29.860446-29.860446 78.490315 0 108.35076l104.938138 104.938138V819.242658c0 42.65778 34.126224 76.784003 76.784003 76.784003h148.449073l104.938138 104.938138c29.860446 29.860446 78.490315 29.860446 108.35076 0L670.793629 896.026661H819.242702c42.65778 0 76.784003-34.126224 76.784004-76.784003V671.64674l104.938137-104.938138c30.713601-29.860446 30.713601-79.34347 0.853156-109.203915z m-229.498854-48.629869l-267.037701 255.946678c-2.559467 2.559467-5.118934 4.265778-7.6784 5.972089-1.706311 2.559467-3.412622 4.265778-5.118934 6.825244-8.531556 8.531556-19.622579 12.797334-30.713601 12.797334-11.091023 0-22.182045-4.265778-30.713601-12.797334L251.041078 497.602999c-17.063112-17.063112-17.063112-44.364091 0-61.427202s44.364091-17.063112 61.427202 0l151.00854 150.155384 249.974589-239.736722c17.063112-16.209956 44.364091-16.209956 60.574047 1.706312 16.209956 16.209956 16.209956 43.510935-1.706311 60.574047z" p-id="4168"></path></svg>