<svg t="1652922206676" class="icon" viewBox="0 0 1024 1024" version="1.1" xmlns="http://www.w3.org/2000/svg"
  p-id="25321" width="200" height="200">
  <path
    d="M471.552 917.504H228.352c-22.528 0-40.448-18.432-40.448-40.448v-121.344c0-111.616 91.136-202.752 202.752-202.752h243.2c42.496 0 83.456 13.312 118.272 38.4 18.432 13.312 43.52 9.216 56.832-9.216 13.312-17.92 9.216-43.52-9.216-56.832-48.64-35.328-105.984-53.76-165.888-53.76H390.144c-156.672 0-283.648 127.488-283.648 283.648v121.856c0 67.072 54.272 121.856 121.856 121.856h243.2c22.528 0 40.448-17.92 40.448-40.448s-17.92-40.96-40.448-40.96zM512 25.6C399.872 25.6 309.248 116.224 309.248 228.352c0 112.128 90.624 202.752 202.752 202.752 112.128 0 202.752-90.624 202.752-202.752C714.752 116.224 623.616 25.6 512 25.6z m0 324.096c-67.072 0-121.856-54.784-121.856-121.856 0-67.072 54.272-121.856 121.856-121.856 67.072 0 121.856 54.272 121.856 121.856S579.072 349.696 512 349.696z"
    p-id="25322"></path>
  <path
    d="M592.896 775.168c0 22.016 18.432 40.448 40.448 40.448h243.2c22.016 0 40.448-18.432 40.448-40.448 0-22.016-18.432-40.448-40.448-40.448h-243.2c-22.016 0-40.448 18.432-40.448 40.448z m283.648 142.336h-243.2c-22.016 0-40.448 18.432-40.448 40.448 0 22.016 18.432 40.448 40.448 40.448h243.2c22.016 0 40.448-18.432 40.448-40.448 0.512-22.528-17.92-40.448-40.448-40.448z m0 0"
    p-id="25323"></path>
</svg>