<?xml version="1.0" standalone="no"?><!DOCTYPE svg PUBLIC "-//W3C//DTD SVG 1.1//EN" "http://www.w3.org/Graphics/SVG/1.1/DTD/svg11.dtd"><svg t="1666094439766" class="icon" viewBox="0 0 1024 1024" version="1.1" xmlns="http://www.w3.org/2000/svg" p-id="4152" xmlns:xlink="http://www.w3.org/1999/xlink" width="640" height="640"><path d="M335.872 651.264c18.944 0 34.816 15.872 34.816 34.816v152.064c0 18.944-15.872 34.816-34.816 34.816-18.944 0-34.816-15.872-34.816-34.816V686.08c0-19.456 15.36-34.816 34.816-34.816zM989.184 325.12c-0.512-2.56-1.024-4.608-2.048-7.168l-81.92-203.776C890.88 71.68 849.408 44.032 799.744 44.032h-573.44c-49.152 0-88.064 26.112-102.4 68.096L36.352 319.488c-0.512 1.536-1.024 3.584-1.536 5.12a195.072 195.072 0 0 0 4.096 133.12c16.896 42.496 48.64 77.824 89.088 99.328 26.112 14.336 57.344 20.992 91.648 20.992 56.32 0 109.568-24.064 146.432-66.56 36.864 41.984 89.6 66.048 145.408 66.048 55.808-0.512 108.032-24.576 144.896-66.56 36.864 41.984 90.112 66.048 145.92 66.048h0.512c35.328 0 66.56-7.68 93.184-22.016 82.944-44.032 121.856-141.312 93.184-229.888z m-117.248 173.568c-15.872 8.704-35.328 13.312-58.88 13.312h-0.512c-41.984 0-81.92-22.528-103.936-58.368-2.56-5.632-6.144-11.264-10.24-15.872-6.656-7.168-17.92-15.872-36.864-15.872-14.848 0-29.184 6.144-36.864 15.872-4.096 4.608-7.168 9.728-9.728 15.36-22.016 36.352-60.416 57.856-102.912 58.368-41.984 0-81.92-22.528-103.424-58.368-1.536-3.584-4.608-9.216-8.704-14.336-8.704-10.24-22.528-15.872-38.4-15.872-14.848 0-28.672 5.632-36.352 14.336-6.144 6.656-9.216 13.312-10.752 16.384-22.528 36.864-61.44 58.368-104.448 58.88-22.528 0-41.984-4.096-57.856-12.8-53.76-28.672-78.336-91.136-58.368-148.48 0.512-1.024 0.512-2.048 1.024-3.072L184.32 136.704c2.048-5.632 6.656-19.456 32.256-19.456H808.96c14.336 1.024 29.184 4.096 35.328 20.992l83.456 208.384c0.512 1.536 0.512 2.56 1.024 4.096 19.968 56.832-4.608 119.296-56.832 147.968z" p-id="4153"></path><path d="M612.864 943.616c0-19.968-16.384-35.84-36.352-35.84H174.08c-8.704 0-16.384-7.168-16.384-16.384v-202.752c0-21.504-15.36-37.888-35.328-37.888-9.216 0-16.896 3.072-23.04 9.216-7.168 7.168-10.752 16.896-10.752 28.672v198.656c0 24.576 9.216 48.128 25.6 65.024 16.896 17.408 39.424 27.136 64 27.136l398.336-0.512c20.48 1.024 36.352-15.36 36.352-35.328zM980.48 705.536l-119.296-57.344c-8.704-4.608-19.968-5.12-27.648-0.512l-119.808 57.344c-10.752 4.608-17.92 15.36-17.92 28.16v160.768c0 13.824 8.192 23.04 15.36 27.648l122.368 56.32 1.024 0.512c3.584 1.536 8.192 2.048 11.776 2.048 4.096 0 8.704-1.024 12.8-2.56l120.32-55.296c11.264-4.608 18.944-15.872 18.944-28.16v-160.768c-0.512-12.8-7.168-23.552-17.92-28.16z m-43.008 48.128v120.32l-89.6 41.472-89.6-41.472v-120.32l89.6-43.008 89.6 43.008z m0 0" p-id="4154"></path><path d="M795.648 812.544c0 28.672 23.04 51.712 51.712 51.712s51.712-23.04 51.712-51.712-23.04-51.712-51.712-51.712c-28.16 0-51.712 23.552-51.712 51.712z m0 0" p-id="4155"></path></svg>