<svg t="1641521988671" class="icon" viewBox="0 0 1024 1024" version="1.1" xmlns="http://www.w3.org/2000/svg" p-id="2985"
  width="128" height="128">
  <path
    d="M856.576 897.024H167.424C89.088 897.024 25.6 833.536 25.6 755.2v-486.4c0-78.336 63.488-141.824 141.824-141.824h689.152c78.336 0 141.824 63.488 141.824 141.824v486.4c0 78.336-63.488 141.824-141.824 141.824zM167.424 201.216c-37.376 0-67.584 30.208-67.584 67.584v486.4c0 37.376 30.208 67.584 67.584 67.584h689.152c37.376 0 67.584-30.208 67.584-67.584v-486.4c0-37.376-30.208-67.584-67.584-67.584H167.424z"
    p-id="2986" fill="#000"></path>
  <path
    d="M332.288 361.472v301.056H257.024V501.248c0-23.552-0.512-37.376-1.536-41.984-1.024-4.608-4.096-8.192-9.216-10.752s-16.384-3.584-33.792-3.584H204.8V409.6c36.352-7.68 64-24.064 82.944-48.128h44.544z"
    fill="#0084FF" p-id="2987"></path>
  <path
    d="M338.432 668.672H250.88V501.248c0-29.696-1.024-38.4-1.536-40.448-0.512-2.048-1.536-4.608-5.632-6.656-2.56-1.024-9.216-3.072-30.72-3.072h-13.824v-46.08l5.12-1.024c34.816-7.68 61.44-23.04 79.36-46.08l2.048-2.56h53.248v313.344z m-75.264-12.288h62.976V367.616h-35.328c-18.944 23.04-45.568 38.912-79.36 47.104v24.064h1.024c24.576 0 32.256 2.56 36.352 4.096 6.656 3.072 10.752 8.192 12.288 14.848 1.024 3.584 2.048 11.264 2.048 43.52v155.136zM568.832 611.328v51.2H403.456V619.52c49.152-79.872 77.824-129.536 87.04-148.48 9.216-18.944 13.824-33.792 13.824-44.544 0-8.192-1.536-14.336-4.096-18.432-2.56-4.096-7.168-6.144-12.8-6.144s-9.728 2.048-12.8 6.656c-2.048 4.608-3.584 13.312-3.584 26.624v28.672H403.456v-10.752c0-16.896 1.024-30.208 2.56-39.936 1.536-9.728 6.144-19.456 12.8-28.672 6.656-9.216 15.872-16.384 26.624-21.504 10.752-4.608 24.064-7.168 39.424-7.168 29.696 0 52.224 7.168 67.584 22.016s23.04 33.792 23.04 56.32c0 17.408-4.096 35.328-12.8 54.784-8.704 19.456-33.792 59.904-76.288 122.368h82.432z"
    fill="#0084FF" p-id="2988"></path>
  <path
    d="M574.976 668.672H397.312v-50.688l1.024-1.536c48.64-79.36 77.824-129.536 87.04-147.968 8.704-17.92 13.312-32.256 13.312-41.984 0-8.704-1.536-12.8-3.072-14.848-1.024-1.536-3.072-3.584-7.68-3.584-3.584 0-5.632 1.024-7.68 3.584-1.024 2.048-3.072 7.68-3.072 23.552v34.816H397.312v-16.896c0-16.896 1.024-30.72 2.56-40.96 2.048-10.752 6.656-20.992 13.824-31.232 7.68-10.24 17.408-17.92 29.184-23.552 11.776-5.12 25.6-7.68 41.472-7.68 31.232 0 55.808 8.192 72.192 24.064 16.384 15.872 25.088 36.352 25.088 60.928 0 17.92-4.608 37.376-13.312 57.344-8.192 18.944-31.232 55.808-70.144 113.664h76.8v62.976z m-164.864-12.288H563.2v-38.912H475.136l6.656-9.728c41.984-61.952 67.072-102.4 75.776-121.344 8.192-18.432 12.288-35.84 12.288-52.224 0-20.992-6.656-37.888-20.992-51.712-13.824-13.824-35.328-20.48-63.488-20.48-14.336 0-26.624 2.048-36.864 6.656-9.728 4.608-17.92 10.752-24.064 19.456-6.144 8.704-10.24 17.408-11.776 26.112-1.536 9.216-2.56 22.528-2.56 38.912v4.608h54.784V435.2c0-14.848 1.536-24.064 5.12-29.696 4.096-6.144 10.24-9.728 17.92-9.728 9.728 0 14.848 4.608 17.92 8.704 3.584 5.12 5.12 12.288 5.12 22.016 0 11.776-4.608 27.136-14.336 47.104-9.216 18.944-38.4 68.608-86.528 147.456v35.328z"
    fill="#0084FF" p-id="2989"></path>
  <path
    d="M784.896 492.032c11.264 4.096 19.968 10.24 25.6 18.944 5.632 8.704 8.192 29.184 8.192 61.44 0 24.064-2.56 42.496-8.192 55.808-5.632 13.312-14.848 23.04-28.16 30.208s-30.72 10.24-51.712 10.24c-23.552 0-42.496-4.096-55.808-11.776-13.824-8.192-22.528-17.92-26.624-29.184-4.096-11.776-6.656-31.744-6.656-60.416V542.72H716.8v48.64c0 12.8 1.024 21.504 2.56 24.576 1.536 3.584 5.12 5.12 10.24 5.12 5.632 0 9.728-2.048 11.776-6.656 2.048-4.608 2.56-15.872 2.56-34.816v-20.992c0-11.776-1.536-19.968-4.096-25.088-2.56-5.12-6.656-8.704-11.776-10.752-5.12-1.536-14.848-2.56-29.696-3.072V476.16c17.92 0 28.672-0.512 33.28-2.048 4.096-1.536 7.168-4.096 9.216-8.704 2.048-4.608 2.56-11.776 2.56-21.504v-16.896c0-10.752-1.024-17.408-3.072-20.992-2.048-3.584-5.632-5.12-10.24-5.12-5.12 0-8.704 1.536-10.752 5.12-2.048 3.584-3.072 11.264-3.072 22.528v24.576h-75.264v-25.6c0-28.672 6.656-48.128 19.456-58.368 13.312-10.24 33.792-15.36 62.464-15.36 35.84 0 59.904 7.168 72.704 20.992 12.8 13.824 18.944 33.28 18.944 58.368 0 16.896-2.048 29.184-6.656 36.352-3.584 9.216-11.264 16.384-23.04 22.528z"
    fill="#0084FF" p-id="2990"></path>
  <path
    d="M730.624 674.816c-24.576 0-44.544-4.096-59.392-12.8-14.848-8.704-24.576-19.456-29.184-32.768-4.608-12.288-6.656-32.768-6.656-62.464v-30.208h87.552v55.296c0 16.896 1.536 21.504 2.048 22.528 0 0.512 0.512 1.536 4.608 1.536 4.608 0 5.632-2.048 5.632-3.072 0.512-1.536 2.56-8.192 2.56-32.768v-20.992c0-13.312-1.536-19.456-3.072-22.528-2.048-3.584-4.608-6.144-7.68-7.168-3.072-1.024-10.24-2.048-27.648-2.56h-6.144V471.04h6.144c22.528 0 29.184-1.024 31.232-1.536 1.536-0.512 3.584-1.536 5.12-5.12 1.024-2.56 2.56-8.192 2.56-19.456v-16.896c0-12.8-1.536-16.896-2.048-17.408-0.512-1.024-2.048-2.048-5.12-2.048-4.096 0-5.12 1.536-5.12 2.048-0.512 1.024-2.048 5.12-2.048 19.456v30.72h-87.552v-31.744c0-30.72 7.68-51.712 22.016-62.976 14.336-11.264 36.352-16.384 66.56-16.384 37.888 0 63.488 7.68 77.312 23.04 13.824 15.36 20.992 36.352 20.992 62.464 0 17.92-2.56 31.232-7.68 39.936-3.584 5.632-9.216 11.264-16.384 16.384 7.168 4.096 13.312 9.728 17.408 16.384 6.144 10.24 9.216 30.72 9.216 65.024 0 24.576-3.072 44.032-8.704 57.856-6.144 14.336-16.384 25.6-31.232 33.28-14.848 6.656-33.28 10.752-55.296 10.752z m-82.944-125.44v17.408c0 27.648 2.048 47.104 6.144 58.368 3.584 10.24 11.776 18.944 24.064 26.112 12.8 7.168 30.208 11.264 52.736 11.264 19.968 0 36.352-3.072 48.64-9.728 12.288-6.144 20.48-14.848 25.6-27.136s7.68-30.208 7.68-53.248c0-38.4-4.096-52.736-7.168-58.368-4.608-7.68-12.288-12.8-22.016-16.384l-13.312-4.608 12.288-6.656c10.24-5.632 17.92-11.776 22.016-18.432 4.096-6.656 6.144-17.92 6.144-33.28 0-23.04-6.144-41.472-17.408-54.272s-34.304-18.944-68.096-18.944c-27.136 0-47.104 4.608-58.88 13.824-11.264 8.704-17.408 26.624-17.408 53.248v19.456H711.68V430.08c0-16.896 2.048-22.528 3.584-25.6 2.048-4.096 6.656-8.704 15.872-8.704 8.704 0 12.8 4.096 15.36 7.68 3.072 4.608 4.096 12.288 4.096 24.064v16.896c0 10.752-1.024 18.432-3.072 24.064-2.56 6.144-7.168 10.752-12.8 12.288-3.072 1.024-8.704 2.048-28.672 2.56v31.744c12.288 0.512 20.48 1.536 25.088 3.072 6.656 2.048 11.776 6.656 15.36 13.824 3.072 6.144 4.608 15.36 4.608 28.16v20.992c0 26.112-1.536 33.792-3.072 37.376-1.536 4.096-6.144 10.24-17.408 10.24-10.24 0-14.336-5.632-15.872-9.216-1.536-3.072-3.072-8.704-3.072-27.136v-42.496h-64z"
    fill="#0084FF" p-id="2991"></path>
</svg>