<svg t="1652838215966" class="icon" viewBox="0 0 1024 1024" version="1.1" xmlns="http://www.w3.org/2000/svg"
  p-id="13371" width="200" height="200">
  <path
    d="M512 998.4c-77.312 0-185.344-57.856-275.456-147.456-46.592-46.08-84.992-98.304-112.128-150.528-31.744-60.928-47.616-121.856-47.616-180.736 0-119.296 2.56-257.024 2.56-264.704 0-45.568 34.304-84.992 79.36-92.16h2.048c48.64-4.608 97.28-16.896 148.48-37.376l1.536-0.512 1.536-0.512c48.64-14.848 93.696-40.448 133.12-76.288l1.536-1.536 1.536-1.024C466.944 32.256 487.936 25.6 510.464 25.6c22.016 0 43.52 6.656 60.928 19.456l1.024 0.512c41.472 32.256 87.552 58.88 136.192 78.848 47.616 14.848 97.28 26.112 156.16 35.328h1.536l1.536 0.512c43.008 10.24 74.752 46.08 78.848 89.6v3.072c1.024 26.112 3.072 122.368-4.096 271.36v3.072c-38.912 303.616-279.04 471.04-430.592 471.04zM169.472 237.568c-7.168 1.536-14.848 8.704-14.848 17.92v0.512c0 1.536-2.56 142.336-2.56 263.68 0 89.6 50.176 190.976 137.728 278.016 74.24 73.728 165.888 125.44 222.208 125.44 60.928 0 141.824-39.936 206.336-101.376 57.344-54.784 129.536-151.552 148.48-301.568 6.656-144.896 4.608-238.08 3.584-263.68-1.536-10.752-9.216-18.944-19.968-22.016-61.952-10.24-116.224-22.528-166.4-37.888l-1.536-0.512-1.536-0.512c-55.296-23.04-107.008-52.736-154.112-89.088-9.216-6.656-23.04-6.656-32.768-0.512-46.592 41.472-99.84 72.192-158.208 90.112-56.832 22.528-111.616 35.84-166.4 41.472z m776.704 16.384z"
    p-id="13372"></path>
  <path
    d="M772.096 370.176c-16.384-17.92-44.544-19.456-62.976-3.072L464.896 599.04 343.552 471.552c-8.192-8.704-18.944-13.824-30.72-14.336-11.776-0.512-23.04 3.584-31.744 11.264-8.704 8.192-13.824 18.944-14.336 30.72-0.512 11.776 3.584 23.04 11.264 31.744l152.576 159.232 8.704 7.168 0.512 0.512c7.168 4.096 14.848 6.144 22.528 6.144 10.752 0 22.016-4.096 30.72-12.288l265.216-250.368v1.024l10.752-9.728c18.432-16.384 19.456-44.544 3.072-62.464z"
    fill="#0084FF" p-id="13373"></path>
</svg>