<?xml version="1.0" standalone="no"?><!DOCTYPE svg PUBLIC "-//W3C//DTD SVG 1.1//EN" "http://www.w3.org/Graphics/SVG/1.1/DTD/svg11.dtd"><svg t="1661937583808" class="icon" viewBox="0 0 1024 1024" version="1.1" xmlns="http://www.w3.org/2000/svg" p-id="3146" xmlns:xlink="http://www.w3.org/1999/xlink" width="640" height="640"><path d="M869.888 154.112c-95.744-95.744-222.72-148.48-357.888-148.48-135.168 0-262.144 52.736-357.888 148.48-95.744 95.744-148.48 222.72-148.48 357.888 0 135.168 52.736 262.144 148.48 357.888s222.72 148.48 357.888 148.48 262.144-52.736 357.888-148.48c95.744-95.744 148.48-222.72 148.48-357.888s-52.736-262.144-148.48-357.888zM512 945.152c-238.592 0-433.152-194.048-433.152-433.152s194.56-433.152 433.152-433.152 433.152 194.048 433.152 433.152-194.56 433.152-433.152 433.152z" p-id="3147"></path><path d="M757.76 552.96H266.24c-22.528 0-40.96-18.432-40.96-40.96s18.432-40.96 40.96-40.96h491.52c22.528 0 40.96 18.432 40.96 40.96s-18.432 40.96-40.96 40.96z" p-id="3148"></path><path d="M512 798.72c-22.528 0-40.96-18.432-40.96-40.96V266.24c0-22.528 18.432-40.96 40.96-40.96s40.96 18.432 40.96 40.96v491.52c0 22.528-18.432 40.96-40.96 40.96z" p-id="3149"></path></svg>