<?xml version="1.0" standalone="no"?><!DOCTYPE svg PUBLIC "-//W3C//DTD SVG 1.1//EN" "http://www.w3.org/Graphics/SVG/1.1/DTD/svg11.dtd"><svg t="1662101091044" class="icon" viewBox="0 0 1024 1024" version="1.1" xmlns="http://www.w3.org/2000/svg" p-id="10415" xmlns:xlink="http://www.w3.org/1999/xlink" width="640" height="640"><path d="M512 25.6C244.736 25.6 25.6 244.736 25.6 512s219.136 486.4 486.4 486.4 486.4-216.576 486.4-486.4-219.136-486.4-486.4-486.4z m233.984 720.384c-9.728 9.728-22.016 14.336-37.888 14.336-15.872 0-28.672-4.608-37.888-14.336l-160.768-160.768-160.768 160.768c-9.728 9.728-22.016 14.336-37.888 14.336-15.872 0-28.672-4.608-37.888-14.336-20.992-20.992-20.992-52.224 0-73.216L433.664 512 272.896 351.232c-20.992-20.992-20.992-52.224 0-73.216 20.992-20.992 52.224-20.992 73.216 0L506.88 438.784l160.768-160.768c20.992-20.992 52.224-20.992 73.216 0 10.24 10.24 15.36 23.04 15.36 36.864s-5.632 26.624-15.36 36.864L580.096 512l165.888 160.768c10.24 10.24 15.36 23.04 15.36 36.864 0 13.312-5.12 26.112-15.36 36.352z" p-id="10416"></path></svg>