<?xml version="1.0" encoding="utf-8"?>
<!-- Generator: Adobe Illustrator 24.0.1, SVG Export Plug-In . SVG Version: 6.00 Build 0)  -->
<svg version="1.1" id="图层_1" xmlns="http://www.w3.org/2000/svg" xmlns:xlink="http://www.w3.org/1999/xlink" x="0px" y="0px"
	 viewBox="0 0 200 200" style="enable-background:new 0 0 200 200;" xml:space="preserve">
<path d="M92.4,5.9c4.4-1.7,9.7-1,13.5,1.8C131,26,156.2,44.3,181.3,62.6c1,0.8,2.1,1.5,3,2.4c2.4,2.2,3.9,5.3,4.3,8.6
	c0.5,4.1-0.8,8.3-3.4,11.5c-2.5,3-6.3,4.8-10.2,5c0,3.9,0,7.7,0,11.6c0,1.6-0.9,3.2-2.2,4c-1.3,0.9-3.1,1-4.5,0.4
	c-6.9-2.7-14.4-3.8-21.8-3.1c-7.6,0.7-15.1,3.2-21.6,7.3c-6.5,4.1-11.9,9.7-15.8,16.3c-4.5,7.6-6.9,16.5-6.7,25.3
	c0.1,10.8,4,21.4,10.8,29.8c0.8,0.9,1.3,2.1,1.2,3.3c0,1.9-1.2,3.8-3.1,4.5c-1.1,0.4-2.2,0.3-3.4,0.3c-32.6,0-65.3,0-97.9,0
	c-1.4,0-2.7-0.7-3.6-1.8c-1.2-1.4-1.4-3.6-0.5-5.2c0.8-1.6,2.4-2.6,4.1-2.7c3.3,0,6.6,0,9.9,0c0-30,0-60,0-90
	c-3.5-0.2-6.9-1.6-9.3-4.1c-2.6-2.6-4.2-6.2-4.3-9.9c-0.3-4.7,2-9.4,5.8-12.2C36.5,45.9,61.1,28,85.6,10.2
	C87.8,8.6,89.8,6.8,92.4,5.9 M95.9,15c-0.9,0.3-1.6,0.9-2.3,1.4c-25,18.2-50,36.4-75,54.6c-0.9,0.6-1.8,1.3-2.3,2.3
	c-1,2-0.3,4.7,1.5,6c1.1,0.9,2.5,1,3.8,0.9c1.6,0.1,3.2-0.2,4.7,0.3C47.8,65,69.2,49.4,90.5,33.8c2.5-1.8,5.5-2.8,8.6-2.7
	c3.1,0,6.2,1.1,8.7,3c21.1,15.4,42.2,30.7,63.3,46.1c0.3,0.2,0.7,0.1,1.1,0.1c1.3,0,2.6,0.1,3.8-0.3c2.2-0.9,3.4-3.4,2.9-5.6
	c-0.2-1.2-1-2.2-2-2.9c-25.6-18.6-51.1-37.2-76.7-55.8C99,14.7,97.3,14.5,95.9,15 M96.2,41.7C74,57.9,51.8,74.1,29.6,90.2
	c0,29.9,0,59.9,0,89.8c9.6,0,19.3,0,28.9,0v-37.4c0-2.7-0.1-5.4,0.3-8.1c1-9.3,5.4-18.2,12.2-24.7c5.5-5.3,12.5-9,20-10.5
	c9-1.8,18.7-0.5,26.9,3.8c5.9-4.1,12.6-7,19.6-8.6c9.1-2.1,18.8-2,27.9,0.3c0-2.3,0-4.6,0-7c-20.8-15.2-41.7-30.3-62.6-45.5
	c-0.7-0.5-1.4-1-2.2-1.3C99.1,40.5,97.4,40.8,96.2,41.7 M95.8,108.4c-7.3,0.7-14.3,4.3-19.3,9.6c-5.2,5.6-8.3,13.2-8.3,20.8
	c0,13.7,0,27.4,0,41.1c10.7,0,21.4,0,32.1,0c-1.1-2-2.1-4-3-6.1c-5.9-13.8-6.2-29.9-0.7-43.9c2.9-7.4,7.4-14.3,13-19.9
	C105.2,108.5,100.4,107.9,95.8,108.4L95.8,108.4z M95.8,108.4"/>
<path d="M145.9,107.8c7.8-0.9,15.9,0.4,23.1,3.7c8.5,3.9,15.7,10.7,20.2,19c4.2,7.8,5.9,16.9,4.9,25.7c-0.8,7.4-3.6,14.6-8.1,20.7
	c-4.6,6.3-10.9,11.3-18.1,14.4c-7.5,3.3-16,4.3-24.1,3c-7.9-1.2-15.5-4.8-21.6-10c-4.8-4.1-8.7-9.3-11.3-15.1
	c-3.2-7.1-4.4-15-3.6-22.7c0.8-7.4,3.5-14.5,7.8-20.6c4.4-6.2,10.4-11.2,17.3-14.3C136.8,109.5,141.3,108.3,145.9,107.8
	 M147.5,117.3c-9.8,0.9-19,6.3-24.6,14.3c-4.4,6.3-6.6,14.1-6.1,21.7c0.4,6.3,2.6,12.4,6.3,17.5c3.3,4.6,7.8,8.4,12.9,10.8
	c8,3.9,17.6,4.3,25.9,1.3c7.2-2.5,13.5-7.6,17.5-14.2c4.5-7.2,6.1-16.2,4.4-24.5c-1.8-9.2-7.6-17.4-15.6-22.3
	C162.3,118.4,154.8,116.6,147.5,117.3L147.5,117.3z M147.5,117.3"/>
<path d="M168,137.1c0.9-1,2.3-1.6,3.7-1.5c1.8,0,3.5,1.1,4.3,2.7c0.9,1.7,0.6,4-0.7,5.4c-7.2,7.9-14.4,15.9-21.6,23.8
	c-0.8,0.8-1.5,1.8-2.6,2.4c-1.7,0.9-4,0.6-5.4-0.7c-5.7-5.2-11.4-10.4-17.2-15.6c-0.9-0.9-2-1.6-2.7-2.8c-1-1.8-0.6-4.2,0.8-5.6
	c1.3-1.4,3.4-1.9,5.2-1.2c1.1,0.4,1.9,1.3,2.8,2c4.7,4.2,9.3,8.4,14,12.6C154.9,151.4,161.5,144.3,168,137.1L168,137.1z M168,137.1"
	/>
</svg>
