<?xml version="1.0" standalone="no"?><!DOCTYPE svg PUBLIC "-//W3C//DTD SVG 1.1//EN" "http://www.w3.org/Graphics/SVG/1.1/DTD/svg11.dtd"><svg t="1666092992458" class="icon" viewBox="0 0 1024 1024" version="1.1" xmlns="http://www.w3.org/2000/svg" p-id="16021" xmlns:xlink="http://www.w3.org/1999/xlink" width="640" height="640"><path d="M996.352 933.376c-4.096-11.264-15.872-19.968-28.16-19.968h-32.768V314.88c0.512-23.552-5.632-47.104-17.408-68.096-18.944-33.28-53.248-57.344-91.136-64-11.264-2.048-22.016-2.048-32.768-2.048h-90.112c0-21.504-4.608-41.984-13.312-59.904-16.384-33.28-47.104-59.392-82.944-69.12-12.288-3.584-25.6-5.12-40.448-5.12H227.84c-7.68 0-17.92 0-28.16 1.536-28.16 5.12-54.272 18.432-73.728 38.912-20.48 20.48-33.28 48.128-36.352 76.8-1.024 8.704-1.024 17.408-1.024 25.6V912.896H56.32c-15.872 0-29.696 13.312-30.72 29.184-1.536 13.824 7.168 27.136 19.968 32.256 4.608 2.048 9.216 2.048 13.824 2.048h907.776c9.728 0 18.944-4.608 24.576-12.288 6.656-8.192 8.704-20.48 4.608-30.72zM152.064 198.656v-8.704c0-5.632 0-11.264 0.512-16.896 1.536-17.408 10.24-34.304 23.552-46.08 12.288-10.24 28.672-16.384 45.056-16.384h350.208c17.92 0 35.328 7.168 48.128 19.456s20.48 29.184 20.992 46.592v34.816c0 6.144 1.536 11.776 3.584 16.384 5.12 10.24 15.872 16.896 27.648 16.896h133.632c15.36 0.512 30.208 6.144 41.472 15.872 14.848 11.776 24.064 30.208 25.088 49.152v604.16H152.064V198.656z" p-id="16022"></path><path d="M245.76 657.408v94.72c0.512 24.064 11.776 47.104 30.72 61.952 14.336 11.264 32.768 17.92 51.2 17.92h109.056c21.504 0 42.496-8.704 57.344-24.064 15.36-14.848 24.576-36.352 24.064-58.368V696.32v-32.768-8.704c0-7.68 0-15.36-0.512-23.552-2.56-22.528-14.848-43.52-33.28-56.832-13.312-9.728-29.696-15.36-46.592-15.36H333.312c-6.656 0-13.312 0-20.48 1.024-30.72 5.12-56.32 28.672-64.512 58.368-3.072 10.24-3.072 20.48-3.072 30.72 0.512 3.072 0.512 5.632 0.512 8.192z m208.896-14.848v105.984c0 5.12-1.536 10.24-4.096 13.312-3.584 4.096-9.216 7.168-14.848 7.168H327.168c-9.216 0-17.408-8.704-17.92-17.408v-27.136-82.944c0-7.68 6.144-15.872 13.824-17.408h0.512c1.024-0.512 2.56-0.512 4.096-0.512h110.08c9.216 0 17.408 9.216 16.896 18.944zM245.76 317.952v96.256c0.512 18.432 7.68 37.376 19.968 51.712 13.312 15.36 32.768 25.6 52.736 27.648 3.584 0.512 6.656 0.512 10.24 0.512h109.056c23.04-0.512 46.08-11.264 60.928-29.184 12.288-14.336 19.456-33.792 19.456-52.736V358.4v-32.768-8.704c0-6.144 0-12.288-0.512-18.432-1.024-23.04-12.8-45.568-31.232-59.392-14.336-11.264-32.768-17.92-51.2-17.408H324.608c-10.752 0.512-20.992 3.072-30.72 7.168-23.04 10.24-40.448 31.232-46.592 55.808-1.536 8.192-1.536 16.896-1.536 25.6v7.68z m87.552-33.28h102.4c6.656 0 13.824 4.096 16.896 10.24 2.048 3.584 2.048 7.68 2.048 11.264v102.4c0 4.608-0.512 7.68-1.536 10.752v0.512c-2.56 6.144-9.216 10.752-16.384 10.752H327.168c-9.216 0-17.408-8.192-17.408-17.408V307.2v-2.048c0-2.56 0-4.608 0.512-6.656v-0.512c1.536-6.144 6.656-11.264 12.8-12.8 2.048-0.512 4.608-0.512 7.168-0.512h3.072zM811.008 563.2c-4.096-1.024-8.192-1.024-11.264-1.024h-96.768c-3.072 0-6.144 0.512-8.704 1.024-14.336 3.584-24.064 17.408-23.04 31.744 0 15.872 13.824 30.208 29.696 30.72H804.864c8.192 0 15.872-3.584 21.504-9.728 9.216-8.704 11.776-23.552 6.656-35.328-4.608-8.192-12.288-15.36-22.016-17.408zM682.496 468.48c5.632 4.608 12.8 7.168 20.48 7.168h99.328c10.752 0 20.992-5.632 26.624-14.336 6.144-9.216 7.168-22.016 2.048-31.744-5.12-10.752-16.896-17.92-29.696-17.92h-96.256c-3.584 0-7.168 0-10.752 1.024-13.312 3.072-24.064 15.36-24.576 29.184 0.512 10.24 5.12 20.48 12.8 26.624zM682.496 761.856c5.632 4.608 12.8 7.168 20.48 7.168h96.768c3.584 0 7.68 0 11.264-1.024 10.24-2.56 18.944-11.264 22.016-22.016 2.56-9.728 1.024-19.968-4.608-27.648-5.632-8.192-15.872-13.312-26.624-13.312H706.56c-4.096 0-7.68 0-11.776 1.024-13.824 3.072-24.064 15.36-24.576 29.184 0 9.728 4.608 19.968 12.288 26.624z" p-id="16023"></path></svg>