<?xml version="1.0" standalone="no"?><!DOCTYPE svg PUBLIC "-//W3C//DTD SVG 1.1//EN" "http://www.w3.org/Graphics/SVG/1.1/DTD/svg11.dtd"><svg t="1666094435774" class="icon" viewBox="0 0 1024 1024" version="1.1" xmlns="http://www.w3.org/2000/svg" p-id="4015" xmlns:xlink="http://www.w3.org/1999/xlink" width="640" height="640"><path d="M292.7616 501.76c17.1008 0 31.1296 9.8816 31.9488 22.272v146.2784c0 12.9024-14.336 23.296-31.9488 23.296s-31.1808-9.8304-32-22.2208v-146.5344c0-12.9024 14.336-23.3472 32-23.3472z m152.2688-128a31.1808 31.1808 0 0 1 31.9488 28.5184v261.12a32.1024 32.1024 0 0 1-63.9488 1.4336v-261.12A31.0272 31.0272 0 0 1 445.0304 373.76z m153.2928 128c17.1008 0 31.1296 9.8304 31.9488 22.2208v146.2784c0 12.9024-14.336 23.3472-31.9488 23.3472s-31.1808-9.8816-32-22.2208v-146.2272c0-12.8512 14.336-23.296 32-23.296z m142.08-128c17.152 0 31.1296 11.6736 31.9488 26.368v265.728c0 15.36-14.2848 27.648-31.9488 27.648s-31.1296-11.7248-32-26.368V401.6128c0-15.36 14.336-27.648 32-27.648z m0 0" p-id="4016"></path><path d="M728.5248 188.3648a25.2928 25.2928 0 0 1 37.888 4.4544 31.7952 31.7952 0 0 1-3.072 40.96l-1.024 0.9728-139.008 123.0336a41.6768 41.6768 0 0 1-52.3264 3.1744l-1.4848-1.0752L438.7328 260.096 303.616 367.9744a25.2416 25.2416 0 0 1-36.8128-5.4272l-0.8704-1.2288a31.6928 31.6928 0 0 1 5.12-40.4992l1.024-0.9216 140.2368-111.9232a41.5744 41.5744 0 0 1 50.5344-1.6896l1.4336 1.0752L594.7392 307.2z m0 0" p-id="4017"></path><path d="M909.6704 832H134.8096A106.752 106.752 0 0 1 28.16 725.3504V155.2896A106.752 106.752 0 0 1 134.8096 48.64h774.8608a106.752 106.752 0 0 1 106.6496 106.6496v570.0608a106.752 106.752 0 0 1-106.6496 106.6496zM134.8096 115.2a40.1408 40.1408 0 0 0-40.0896 40.0896v570.0608a40.1408 40.1408 0 0 0 40.0896 40.0896h774.8608a40.1408 40.1408 0 0 0 40.0896-40.0896V155.2896a40.1408 40.1408 0 0 0-40.0896-40.0896zM901.12 975.36H138.24a33.28 33.28 0 0 1 0-66.56h762.88a33.28 33.28 0 0 1 0 66.56z" p-id="4018"></path></svg>