<svg t="1652838333851" class="icon" viewBox="0 0 1024 1024" version="1.1" xmlns="http://www.w3.org/2000/svg"
  p-id="13507" width="200" height="200">
  <path
    d="M856.576 897.024H167.424C89.088 897.024 25.6 833.536 25.6 755.2v-486.4c0-78.336 63.488-141.824 141.824-141.824h689.152c78.336 0 141.824 63.488 141.824 141.824v486.4c0 78.336-63.488 141.824-141.824 141.824zM167.424 201.216c-37.376 0-67.584 30.208-67.584 67.584v486.4c0 37.376 30.208 67.584 67.584 67.584h689.152c37.376 0 67.584-30.208 67.584-67.584v-486.4c0-37.376-30.208-67.584-67.584-67.584H167.424z"
    p-id="13508"></path>
  <path
    d="M512 626.688c-8.192 0-16.896-2.56-23.552-8.704L168.96 354.304c-15.872-12.8-17.92-36.352-5.12-52.224 12.8-15.872 36.352-17.92 52.224-5.12l319.488 263.68c15.872 12.8 17.92 36.352 5.12 52.224-7.68 9.216-17.92 13.824-28.672 13.824z"
    fill="#0084FF" p-id="13509"></path>
  <path
    d="M512 626.688c-10.752 0-21.504-4.608-28.672-13.312-12.8-15.872-10.752-38.912 5.12-52.224l319.488-263.68c15.872-12.8 38.912-10.752 52.224 5.12 12.8 15.872 10.752 38.912-5.12 52.224l-319.488 263.68c-6.656 5.632-15.36 8.192-23.552 8.192z"
    fill="#0084FF" p-id="13510"></path>
</svg>