<?xml version="1.0" standalone="no"?><!DOCTYPE svg PUBLIC "-//W3C//DTD SVG 1.1//EN" "http://www.w3.org/Graphics/SVG/1.1/DTD/svg11.dtd"><svg t="1661305604677" class="icon" viewBox="0 0 1024 1024" version="1.1" xmlns="http://www.w3.org/2000/svg" p-id="10160" width="640" height="640" xmlns:xlink="http://www.w3.org/1999/xlink"><defs><style type="text/css">@font-face { font-family: feedback-iconfont; src: url("//at.alicdn.com/t/font_1031158_u69w8yhxdu.woff2?t=1630033759944") format("woff2"), url("//at.alicdn.com/t/font_1031158_u69w8yhxdu.woff?t=1630033759944") format("woff"), url("//at.alicdn.com/t/font_1031158_u69w8yhxdu.ttf?t=1630033759944") format("truetype"); }
</style></defs><path d="M844.288 598.528V314.88c0-30.464-16.128-58.368-42.496-73.472l-248.064-142.336c-26.112-14.848-58.112-14.848-84.224 0l-248.32 142.336c-26.368 15.104-42.496 43.008-42.496 73.472v283.648c0 30.464 16.128 58.368 42.496 73.472l248.064 142.336c26.112 14.848 58.112 14.848 84.224 0l248.064-142.336c26.368-15.104 42.752-43.264 42.752-73.472z" fill="#F2F8FF" p-id="10161"></path><path d="M619.776 767.232l-234.496 28.16c-23.552 2.816-45.056-15.36-48.128-40.192l-48.128-399.36c-3.072-24.832 13.824-47.616 37.12-50.432l302.592-36.352c23.552-2.816 45.056 15.36 48.128 40.192L716.8 640.512c-1.024 27.648-72.192 119.04-97.024 126.72z" fill="#D4ECFF" p-id="10162"></path><path d="M634.368 802.816L385.28 857.6c-24.832 5.376-49.664-10.496-55.296-35.328L242.176 424.192c-5.376-24.832 10.496-49.664 35.328-55.296L599.04 297.984c24.832-5.376 49.664 10.496 55.296 35.328L727.04 663.808c1.536 28.16-66.56 128.512-92.672 139.008z" fill="#6EBEFF" p-id="10163"></path><path d="M599.552 475.904l-233.984 51.712c-5.376 1.28-10.752-2.304-11.776-7.68l-2.304-9.984c-1.28-5.376 2.304-10.752 7.68-11.776l233.984-51.712c5.376-1.28 10.752 2.304 11.776 7.68l2.304 9.984c1.024 5.376-2.304 10.496-7.68 11.776zM616.448 552.96l-233.984 51.712c-5.376 1.28-10.752-2.304-11.776-7.68l-2.304-9.984c-1.28-5.376 2.304-10.752 7.68-11.776l233.984-51.712c5.376-1.28 10.752 2.304 11.776 7.68l2.304 9.984c1.024 5.12-2.304 10.496-7.68 11.776zM633.344 629.76L399.36 681.472c-5.376 1.28-10.752-2.304-11.776-7.68l-2.304-9.984c-1.28-5.376 2.304-10.752 7.68-11.776l233.984-51.712c5.376-1.28 10.752 2.304 11.776 7.68l2.304 9.984c1.024 5.376-2.304 10.752-7.68 11.776z" fill="#FFFFFF" p-id="10164"></path><path d="M622.08 747.008l12.288 55.808c26.112-10.496 94.208-110.848 92.672-139.008l-60.416 13.312c-31.488 6.912-51.712 38.4-44.544 69.888z" fill="#D4ECFF" p-id="10165"></path><path d="M660.48 49.408l9.216 16.128 17.664 4.864-12.544 13.312 0.768 18.432-16.64-7.68-17.152 6.4 2.048-18.176-11.264-14.336 17.92-3.584zM740.864 124.416l6.144 11.008 12.288 3.328-8.448 9.216 0.512 12.544-11.52-5.12-11.776 4.352 1.536-12.544-7.936-9.728 12.288-2.56zM217.088 204.032c-12.8 0-23.04-10.24-23.04-23.04s10.24-23.04 23.04-23.04 23.04 10.24 23.04 23.04-10.24 23.04-23.04 23.04z m0-33.28c-5.632 0-10.24 4.608-10.24 10.24s4.608 10.24 10.24 10.24 10.24-4.608 10.24-10.24-4.608-10.24-10.24-10.24zM819.968 760.832c-3.072 0-5.632-2.56-5.632-5.632v-39.936c0-3.072 2.56-5.632 5.632-5.632 3.072 0 5.632 2.56 5.632 5.632V755.2c0 3.072-2.56 5.632-5.632 5.632z" fill="#6EBEFF" p-id="10166"></path><path d="M794.368 735.232v-0.256c0-3.072 2.56-5.632 5.632-5.632h40.192c3.072 0 5.632 2.56 5.632 5.632v0.256c0 3.072-2.56 5.632-5.632 5.632h-40.192c-3.328 0-5.632-2.56-5.632-5.632z" fill="#6EBEFF" p-id="10167"></path><path d="M752.128 349.952c-3.84 0-7.424-2.048-9.216-5.632-40.96-80.64-94.208-128.256-157.952-141.824-108.032-23.04-211.968 59.904-212.992 60.672-4.352 3.584-10.752 2.816-14.336-1.536-3.584-4.352-2.816-10.752 1.536-14.336 4.608-3.584 112.64-89.856 230.144-64.768 70.144 14.848 128 66.304 172.032 152.576 2.56 5.12 0.512 11.264-4.608 13.824-1.536 0.768-3.072 1.024-4.608 1.024z" fill="#D4ECFF" p-id="10168"></path><path d="M773.888 374.016l11.52-39.424c1.28-4.608-3.328-8.448-7.68-6.144L727.04 355.328c-4.096 2.304-3.584 8.192 0.768 9.728l39.168 12.544c3.072 1.024 6.144-0.768 6.912-3.584zM335.36 280.064l40.704 4.608c4.608 0.512 7.68-4.864 4.864-8.448l-35.072-45.312c-2.816-3.584-8.704-2.048-9.472 2.56l-5.888 40.704c-0.256 2.816 1.792 5.632 4.864 5.888z" fill="#D4ECFF" p-id="10169"></path><path d="M330.24 928.512a181.76 46.08 0 1 0 363.52 0 181.76 46.08 0 1 0-363.52 0Z" fill="#D4ECFF" p-id="10170"></path></svg>