<svg t="1652349768561" class="icon" viewBox="0 0 1024 1024" version="1.1" xmlns="http://www.w3.org/2000/svg" p-id="6628" width="128" height="128"><path d="M695.893333 222.72c7.722667 0 14.848 2.730667 20.394667 7.338667l0.256-0.426667a384 384 0 1 1-411.008 1.237333l0.853333 1.066667a32 32 0 1 1 34.133334 52.565333l2.986666-1.92a320 320 0 1 0 337.834667 0.554667 32 32 0 0 1 14.506667-60.416z" p-id="6629"></path><path d="M480 85.333333m32 0l0 0q32 0 32 32l0 405.333334q0 32-32 32l0 0q-32 0-32-32l0-405.333334q0-32 32-32Z" p-id="6630"></path></svg>