<?xml version="1.0" standalone="no"?><!DOCTYPE svg PUBLIC "-//W3C//DTD SVG 1.1//EN" "http://www.w3.org/Graphics/SVG/1.1/DTD/svg11.dtd"><svg t="1661841955628" class="icon" viewBox="0 0 1025 1024" version="1.1" xmlns="http://www.w3.org/2000/svg" p-id="28364" xmlns:xlink="http://www.w3.org/1999/xlink" width="640.625" height="640"><path d="M1005.593702 494.08L531.481702 29.696c-5.12-5.12-12.288-8.192-19.456-8.192-7.68 0-14.336 3.072-19.968 8.192L18.969702 494.08c-12.288 12.288-19.456 29.184-18.944 47.104 0.512 35.84 30.208 64.512 66.56 64.512h25.088v381.44c0 14.848 11.776 26.624 26.624 26.624h788.992c14.848 0 26.624-11.776 26.624-26.624v-381.44h24.064c16.384 0 31.744-5.12 43.52-14.848 15.36-12.8 24.064-31.232 24.064-50.688-1.024-17.408-7.68-33.792-19.968-46.08zM579.097702 947.2H445.977702v-273.408h133.12V947.2z m287.744-408.064V947.2h-224.768v-292.864c0-20.992-16.896-48.64-37.888-48.64H420.377702c-20.992 0-37.888 28.16-37.888 48.64V947.2h-225.28v-408.064H67.097702l444.928-435.2 444.928 435.2h-90.112z" p-id="28365"></path></svg>