<?xml version="1.0" encoding="utf-8"?>
<!-- Generator: Adobe Illustrator 24.0.1, SVG Export Plug-In . SVG Version: 6.00 Build 0)  -->
<svg version="1.1" id="图层_1" xmlns="http://www.w3.org/2000/svg" xmlns:xlink="http://www.w3.org/1999/xlink" x="0px" y="0px"
	 width="120px" height="120px" viewBox="0 0 120 120" style="enable-background:new 0 0 120 120;" xml:space="preserve">
<g>
	<g>
		<path style="fill:#0E1F6F;" d="M102.9,0.4c-1.4-0.3-2.8-0.4-4.3-0.4H21.4c-1.5,0-2.9,0.2-4.3,0.4L60,43.3L102.9,0.4z"/>
		<path style="fill:#0E1F6F;" d="M119.6,102.9c0.3-1.4,0.4-2.8,0.4-4.3V21.4c0-1.5-0.2-2.9-0.4-4.3L76.7,60L119.6,102.9z"/>
		<path style="fill:#0E1F6F;" d="M0.4,17.1C0.2,18.5,0,19.9,0,21.4v77.1c0,1.5,0.2,2.9,0.4,4.3L43.3,60L0.4,17.1z"/>
		<path style="fill:#0E1F6F;" d="M17.1,119.6c1.4,0.3,2.8,0.4,4.3,0.4h77.1c1.5,0,2.9-0.2,4.3-0.4L60,76.7L17.1,119.6z"/>
		<path style="fill:#F6FAF5;" d="M119.6,102.9L76.7,60l42.9-42.9c-1.7-8.4-8.3-15-16.7-16.7L60,43.3L17.1,0.4
			C8.7,2.2,2.2,8.7,0.4,17.1L43.3,60L0.4,102.9c1.7,8.4,8.3,15,16.7,16.7L60,76.7l42.9,42.9C111.3,117.8,117.8,111.3,119.6,102.9z"
			/>
	</g>
	<rect x="0" y="42.9" style="fill:#F6FAF5;" width="120" height="34.3"/>
	
		<rect x="0" y="42.9" transform="matrix(-1.836970e-16 1 -1 -1.836970e-16 120 -6.078597e-05)" style="fill:#F6FAF5;" width="120" height="34.3"/>
	<rect x="0" y="49.3" style="fill:#AE1F01;" width="120" height="21.4"/>
	
		<rect x="0" y="49.3" transform="matrix(-1.836970e-16 1 -1 -1.836970e-16 120 -6.078597e-05)" style="fill:#AE1F01;" width="120" height="21.4"/>
	<g>
		<path style="fill:#AE1F01;" d="M43.3,43L6.5,6.1c-2.1,2-3.8,4.5-4.9,7.2L31.2,43H43.3z"/>
		<path style="fill:#AE1F01;" d="M118.5,106.4c-1.1,2.8-2.7,5.3-4.8,7.3"/>
		<path style="fill:#AE1F01;" d="M89.3,77.1H77.1l36.6,36.6c2.1-2.1,3.7-4.6,4.8-7.3L89.3,77.1z"/>
		<path style="fill:#AE1F01;" d="M89.3,42.6l29.2-29.2c-1.1-2.8-2.8-5.2-4.8-7.3L77.1,42.6H89.3z"/>
		<path style="fill:#AE1F01;" d="M31.4,77L1.6,106.8c1.1,2.7,2.8,5.2,4.9,7.2L43.5,77H31.4z"/>
	</g>
</g>
</svg>
