<?xml version="1.0" encoding="utf-8"?>
<!-- Generator: Adobe Illustrator 24.0.1, SVG Export Plug-In . SVG Version: 6.00 Build 0)  -->
<svg version="1.1" id="图层_1" xmlns="http://www.w3.org/2000/svg" xmlns:xlink="http://www.w3.org/1999/xlink" x="0px" y="0px"
	 width="120px" height="120px" viewBox="0 0 120 120" style="enable-background:new 0 0 120 120;" xml:space="preserve">
<g>
	<path style="fill:#EF1C25;" d="M98.6,120H21.4C9.6,120,0,110.4,0,98.6V21.4C0,9.6,9.6,0,21.4,0h77.1C110.4,0,120,9.6,120,21.4v77.1
		C120,110.4,110.4,120,98.6,120z"/>
	<polygon style="fill:#FDFE0A;" points="29.2,25 35.2,37.3 48.7,39.2 39,48.7 41.3,62.1 29.2,55.8 17.1,62.1 19.4,48.7 9.7,39.2 
		23.2,37.3 	"/>
	<polygon style="fill:#FDFE0A;" points="69.4,17.4 68.1,21.3 70.6,24.6 66.5,24.5 64.1,27.9 62.9,24 59,22.7 62.3,20.4 62.3,16.3 
		65.6,18.7 	"/>
	<polygon style="fill:#FDFE0A;" points="84.7,34.1 83.4,37.9 85.8,41.2 81.7,41.2 79.4,44.5 78.2,40.6 74.3,39.4 77.6,37 77.5,32.9 
		80.8,35.4 	"/>
	<polygon style="fill:#FDFE0A;" points="78.9,51.4 80.7,55.1 84.8,55.6 81.9,58.5 82.5,62.5 78.9,60.6 75.3,62.5 76,58.5 73.1,55.6 
		77.1,55.1 	"/>
	<polygon style="fill:#FDFE0A;" points="68.7,67.3 67.4,71.2 69.9,74.5 65.8,74.4 63.4,77.8 62.2,73.9 58.3,72.6 61.6,70.3 
		61.6,66.2 64.9,68.6 	"/>
</g>
</svg>
