<svg t="1641521748329" class="icon" viewBox="0 0 1024 1024" version="1.1" xmlns="http://www.w3.org/2000/svg" p-id="2714"
  width="128" height="128">
  <path
    d="M779.264 366.08H244.736C163.84 366.08 98.816 431.616 98.816 512v340.48c0 80.384 65.536 145.92 145.92 145.92h535.04c80.384 0 145.92-65.536 145.92-145.92V512c-0.512-80.384-65.536-145.92-146.432-145.92z m73.216 486.4c0 19.456-7.68 37.888-21.504 51.712-13.824 13.824-32.256 21.504-51.712 21.504H244.736c-19.456 0-37.888-7.68-51.712-21.504-13.824-13.824-21.504-32.256-21.504-51.712V512c0-40.448 32.768-73.216 72.704-73.216h535.04c40.448 0 72.704 32.768 72.704 73.216v340.48z"
    p-id="2715" fill="#000"></path>
  <path
    d="M684.032 96.768C638.464 51.2 576.512 25.6 512 25.6 377.856 25.6 268.8 134.656 268.8 268.8v169.984h486.4V268.8c0-64.512-25.6-126.464-71.168-172.032z m-2.048 269.312H341.504v-97.28c0-45.056 17.92-88.576 49.664-120.32 31.744-31.744 75.264-49.664 120.32-49.664s88.576 17.92 120.32 49.664c31.744 31.744 49.664 75.264 49.664 120.32v97.28z"
    p-id="2716" fill="#000"></path>
  <path
    d="M512 791.552c-9.728 0-18.944-3.584-25.6-10.752-6.656-6.656-10.752-15.872-10.752-25.6V609.28c0-19.968 16.384-36.352 36.352-36.352 19.968 0 36.352 16.384 36.352 36.352v145.92c0 19.968-16.384 36.352-36.352 36.352z"
    fill="#0084FF" p-id="2717"></path>
</svg>