<svg t="1641521712346" class="icon" viewBox="0 0 1024 1024" version="1.1" xmlns="http://www.w3.org/2000/svg" p-id="2578"
  width="128" height="128">
  <path
    d="M779.264 366.08H244.736C163.84 366.08 98.816 431.616 98.816 512v340.48c0 80.384 65.536 145.92 145.92 145.92h535.04c80.384 0 145.92-65.536 145.92-145.92V512c-0.512-80.384-65.536-145.92-146.432-145.92z m73.216 486.4c0 19.456-7.68 37.888-21.504 51.712-13.824 13.824-32.256 21.504-51.712 21.504H244.736c-19.456 0-37.888-7.68-51.712-21.504-13.824-13.824-21.504-32.256-21.504-51.712V512c0-40.448 32.768-73.216 72.704-73.216h535.04c40.448 0 72.704 32.768 72.704 73.216v340.48z"
    p-id="2579" fill="#000"></path>
  <path
    d="M684.032 96.768C638.464 51.2 576.512 25.6 512 25.6 377.856 25.6 268.8 134.656 268.8 268.8v169.984h486.4V268.8c0-64.512-25.6-126.464-71.168-172.032z m-1.536 269.312H342.016v-97.28c0-45.056 17.92-88.576 49.664-120.32 31.744-31.744 75.264-49.664 120.32-49.664s88.576 17.92 120.32 49.664c31.744 31.744 49.664 75.264 49.664 120.32v97.28z"
    p-id="2580" fill="#000"></path>
  <path
    d="M512 816.64c-74.24 0-134.144-60.416-134.144-134.144S437.76 547.84 512 547.84s134.144 60.416 134.144 134.144-59.904 134.656-134.144 134.656z m0-199.68c-35.84 0-65.536 29.184-65.536 65.536S476.16 747.52 512 747.52c35.84 0 65.536-29.184 65.536-65.536s-29.696-65.024-65.536-65.024z"
    fill="#0084FF" p-id="2581"></path>
</svg>