<svg t="1641522176613" class="icon" viewBox="0 0 1024 1024" version="1.1" xmlns="http://www.w3.org/2000/svg" p-id="3262"
  width="128" height="128">
  <path
    d="M726.528 998.4H297.472c-89.6 0-162.304-72.704-162.304-162.304V187.904C135.168 98.304 207.872 25.6 297.472 25.6h429.056c89.6 0 162.304 72.704 162.304 162.304v648.192c0 89.6-72.704 162.304-162.304 162.304zM297.472 108.032c-44.032 0-79.872 35.84-79.872 79.872v648.192c0 44.032 35.84 79.872 79.872 79.872h429.056c44.032 0 79.872-35.84 79.872-79.872V187.904c0-44.032-35.84-79.872-79.872-79.872H297.472z"
    p-id="3263" fill="#000"></path>
  <path
    d="M634.88 826.88H404.992c-22.528 0-41.472-18.432-41.472-41.472 0-22.528 18.432-41.472 41.472-41.472H634.88c22.528 0 41.472 18.432 41.472 41.472-0.512 23.04-18.944 41.472-41.472 41.472z"
    fill="#0084FF" p-id="3264"></path>
</svg>