<?xml version="1.0" standalone="no"?><!DOCTYPE svg PUBLIC "-//W3C//DTD SVG 1.1//EN" "http://www.w3.org/Graphics/SVG/1.1/DTD/svg11.dtd"><svg t="1661912414057" class="icon" viewBox="0 0 1024 1024" version="1.1" xmlns="http://www.w3.org/2000/svg" p-id="3789" xmlns:xlink="http://www.w3.org/1999/xlink" width="640" height="640"><path d="M42.666667 149.482667A106.752 106.752 0 0 1 149.482667 42.666667h725.034666A106.752 106.752 0 0 1 981.333333 149.482667v725.034666A106.752 106.752 0 0 1 874.517333 981.333333H149.482667A106.752 106.752 0 0 1 42.666667 874.517333V149.482667z m853.333333 430.186666V149.482667C896 137.578667 886.421333 128 874.517333 128H149.482667C137.578667 128 128 137.578667 128 149.482667v515.52l97.834667-97.834667A42.666667 42.666667 0 0 1 281.6 563.2l138.666667 104.021333 229.994666-268.330666a42.666667 42.666667 0 0 1 62.570667-2.389334L896 579.669333zM128 874.624C128 886.485333 137.557333 896 149.482667 896h725.034666A21.333333 21.333333 0 0 0 896 874.730667v-174.4l-210.922667-210.922667-226.005333 263.68a42.666667 42.666667 0 0 1-58.005333 6.378667l-141.056-105.813334L128 785.685333v88.96zM341.333333 426.666667a85.333333 85.333333 0 1 1 0-170.666667 85.333333 85.333333 0 0 1 0 170.666667z" p-id="3790"></path></svg>