<svg t="1650253040505" class="icon" viewBox="0 0 1024 1024" version="1.1" xmlns="http://www.w3.org/2000/svg" p-id="913" width="128" height="128"><path d="M490.666667 0a42.666667 42.666667 0 0 0-42.666667 42.666667v405.333333H42.666667a42.666667 42.666667 0 0 0-42.666667 42.666667v42.666666a42.666667 42.666667 0 0 0 42.666667 42.666667h405.333333v405.333333a42.666667 42.666667 0 0 0 42.666667 42.666667h42.666666a42.666667 42.666667 0 0 0 42.666667-42.666667V576h405.333333a42.666667 42.666667 0 0 0 42.666667-42.666667v-42.666666a42.666667 42.666667 0 0 0-42.666667-42.666667H576V42.666667a42.666667 42.666667 0 0 0-42.666667-42.666667h-42.666666z" p-id="914"></path></svg>