<?xml version="1.0" standalone="no"?><!DOCTYPE svg PUBLIC "-//W3C//DTD SVG 1.1//EN" "http://www.w3.org/Graphics/SVG/1.1/DTD/svg11.dtd"><svg t="1666092979084" class="icon" viewBox="0 0 1024 1024" version="1.1" xmlns="http://www.w3.org/2000/svg" p-id="15824" width="640" height="640" xmlns:xlink="http://www.w3.org/1999/xlink"><path d="M674.816 525.312c-76.8 0-139.776 60.928-139.776 135.168 0 74.752 62.464 135.168 139.776 135.168 76.8 0 139.776-60.928 139.776-135.168 0-74.24-62.976-135.168-139.776-135.168z m64 135.68v3.072c-1.536 32.768-29.696 58.88-64 58.88-35.328 0-64-27.648-64-61.952 0-34.304 28.672-61.952 64-61.952h3.584c33.792 1.536 60.416 28.672 60.416 61.952z" p-id="15825"></path><path d="M956.416 588.8c-3.584-9.728-10.752-17.408-20.48-21.504l-51.2-22.016c-1.024-0.512-1.536-1.536-1.536-2.56l6.144-53.76c1.024-11.264-3.072-22.528-11.264-30.208l-5.632-5.12c-33.792-30.208-74.24-52.224-118.272-64l-3.072-0.512-3.584-0.512c-9.216-1.024-18.432 1.536-25.6 7.168l-45.056 32.256c-1.024 0.512-2.56 0.512-3.584 0l-45.056-32.256c-9.216-6.656-21.504-8.704-32.768-5.632l-7.68 2.048c-43.008 12.8-83.456 36.352-116.224 67.072l-2.048 1.536c-7.168 7.68-10.24 17.92-9.216 28.16l6.144 53.76c0 1.024-0.512 2.048-1.536 2.56l-51.2 22.016c-10.752 4.608-18.432 13.824-21.504 24.576l-2.048 7.68c-9.728 43.008-9.216 88.064 2.048 131.072l1.024 2.56c3.584 9.728 10.752 17.408 20.48 21.504l51.2 22.016c1.024 0.512 1.536 1.536 1.536 2.56l-6.144 53.76c-1.024 11.264 3.072 22.528 11.264 30.208l5.632 5.12c33.792 29.696 74.24 52.224 118.272 64l3.072 0.512c2.048 0.512 4.608 0.512 6.656 0.512 7.68 0 15.872-2.56 22.528-7.168l45.056-32.256c1.024-0.512 2.56-0.512 3.584 0l45.056 32.256c6.656 4.608 14.336 7.168 22.528 7.168h3.072c2.048 0 4.608-0.512 6.656-1.024l7.68-2.048c43.008-12.8 83.456-36.352 116.224-67.072l2.048-2.048c7.168-7.68 10.24-17.92 9.216-28.16l-6.144-53.76c0-1.024 0.512-2.048 1.536-2.56l51.2-22.016c10.752-4.608 18.432-13.824 21.504-24.576l2.048-7.68c9.728-43.008 9.216-88.064-2.048-131.072l-0.512-2.56z m-148.48 198.656l4.096 34.816c-18.432 14.848-39.424 26.112-61.44 34.304l-29.696-20.992c-13.312-9.728-29.696-14.848-46.08-14.848h-4.608c-14.848 1.024-29.696 5.632-41.984 14.336l-29.696 20.992c-22.016-8.192-43.008-19.456-61.44-34.304l4.096-34.816c3.584-33.28-14.848-64.512-46.592-77.824l-33.28-14.336c-4.096-22.528-4.096-45.568 0-68.608l33.28-14.336c31.744-13.312 50.176-44.544 46.592-77.824l-4.096-34.816c18.432-14.848 38.912-26.112 61.44-34.304l29.696 20.992c27.648 19.456 65.024 19.456 92.672 0l29.696-20.992c22.016 8.192 43.008 19.456 61.44 34.304l-4.096 34.816c-3.584 33.28 14.848 64.512 46.08 77.824l33.28 14.336c4.096 22.528 4.096 45.568 0 68.608l-33.28 14.336c-31.232 13.824-49.664 45.056-46.08 78.336z" p-id="15826"></path><path d="M833.024 25.6H190.976C99.84 25.6 25.6 95.232 25.6 180.224v535.04c0 41.472 17.408 80.384 48.64 109.568 31.232 29.184 72.704 45.056 116.736 45.056h176.128c20.48 0 37.376-16.384 37.376-37.376 0-20.48-16.384-37.376-37.376-37.376H190.976c-50.176 0-91.136-35.84-91.136-80.384V180.224c0-44.544 40.96-80.384 91.136-80.384h641.536c24.576 0 47.616 8.704 64.512 23.552 16.896 15.36 26.624 35.328 26.624 56.832V460.8c0 20.48 16.384 37.376 37.376 37.376 20.48 0 37.376-16.384 37.376-37.376V180.224C998.4 95.232 924.16 25.6 833.024 25.6zM486.4 998.4H215.04c-20.48 0-37.376-16.384-37.376-37.376 0-20.48 16.384-37.376 37.376-37.376h271.36c20.48 0 37.376 16.384 37.376 37.376S506.88 998.4 486.4 998.4z" p-id="15827"></path></svg>