<svg t="1652851243340" class="icon" viewBox="0 0 1024 1024" version="1.1" xmlns="http://www.w3.org/2000/svg" p-id="5424"
  width="200" height="200">
  <path
    d="M513.113043 670.052174C329.46087 670.052174 178.086957 519.791304 178.086957 335.026087S329.46087 0 513.113043 0s335.026087 150.26087 335.026087 335.026087-150.26087 335.026087-335.026087 335.026087z m0-570.991304c-130.226087 0-237.078261 105.73913-237.07826 237.07826s105.73913 237.078261 237.07826 237.078261c130.226087 0 237.078261-105.73913 237.078261-237.078261S644.452174 99.06087 513.113043 99.06087z"
    p-id="5425"></path>
  <path
    d="M160.278261 1024C133.565217 1024 111.304348 1001.73913 111.304348 975.026087c0-221.495652 180.313043-402.921739 401.808695-402.921739 26.713043 0 48.973913 22.26087 48.973914 48.973913 0 26.713043-22.26087 48.973913-48.973914 48.973913-168.069565 0-303.86087 136.904348-303.860869 303.860869 0 27.826087-21.147826 50.086957-48.973913 50.086957z"
    p-id="5426"></path>
  <path
    d="M863.721739 1024c-26.713043 0-48.973913-22.26087-48.973913-48.973913 0-168.069565-135.791304-303.86087-303.860869-303.86087-26.713043 0-48.973913-22.26087-48.973914-48.973913 0-26.713043 22.26087-48.973913 48.973914-48.973913C732.382609 572.104348 912.695652 752.417391 912.695652 975.026087c0 26.713043-22.26087 48.973913-48.973913 48.973913z"
    p-id="5427"></path>
</svg>