<?xml version="1.0" standalone="no"?><!DOCTYPE svg PUBLIC "-//W3C//DTD SVG 1.1//EN" "http://www.w3.org/Graphics/SVG/1.1/DTD/svg11.dtd"><svg t="1667461146998" class="icon" viewBox="0 0 1024 1024" version="1.1" xmlns="http://www.w3.org/2000/svg" p-id="4197" width="640" height="640" xmlns:xlink="http://www.w3.org/1999/xlink"><path d="M655.436828 557.323891H568.414958c-1.706311 0-3.412622 0-5.118934-0.853156h-1.706311c-0.853156 0-2.559467-0.853156-3.412622-0.853155-0.853156 0-0.853156-0.853156-1.706311-0.853156-0.853156-0.853156-1.706311-0.853156-2.559467-1.706311-0.853156 0-0.853156-0.853156-1.706311-0.853156-0.853156-0.853156-1.706311-0.853156-2.559467-1.706311l-1.706311-1.706311c-0.853156-1.706311-1.706311-2.559467-1.706311-3.412622 0-0.853156-0.853156-0.853156-0.853156-1.706312-0.853156-0.853156-0.853156-1.706311-1.706311-2.559466-0.853156-0.853156-0.853156-1.706311-0.853156-1.706312 0-0.853156-0.853156-1.706311-0.853155-2.559466 0-0.853156 0-1.706311-0.853156-1.706312v-1.706311L525.757178 443.854197v-1.706311-3.412623-3.412622-2.559467c0-0.853156 0-1.706311 0.853156-2.559466 0-0.853156 0.853156-1.706311 0.853156-2.559467 0-0.853156 0.853156-1.706311 0.853155-2.559467 0.853156-0.853156 0.853156-1.706311 1.706311-2.559467 0-0.853156 0.853156-0.853156 1.706312-1.706311s1.706311-1.706311 1.706311-2.559467l1.706311-1.706311h0.853155l1.706312-1.706311c0.853156-0.853156 1.706311-0.853156 2.559466-1.706311 0.853156-0.853156 1.706311-0.853156 1.706312-0.853156 27.300979-11.944178 44.364091-38.392002 44.36409-67.399292 0-19.622579-7.6784-38.392002-22.182045-52.895646-14.503645-13.650489-33.273068-21.32889-53.748802-20.475735-36.68569 0.853156-67.399292 29.00729-71.66507 65.692981-3.412622 32.419913 14.503645 62.280358 44.364091 75.930848 0.853156 0 0.853156 0.853156 1.706311 0.853155 0.853156 0.853156 1.706311 0.853156 2.559467 1.706311 0.853156 0.853156 1.706311 0.853156 1.706311 1.706312 0.853156 0.853156 1.706311 1.706311 2.559467 1.706311l1.706311 1.706311c0.853156 0.853156 1.706311 1.706311 1.706311 2.559467 0.853156 0.853156 0.853156 1.706311 0.853156 1.706311 0.853156 0.853156 0.853156 1.706311 0.853155 2.559467 0 0.853156 0.853156 1.706311 0.853156 2.559467 0.853156 1.706311 0.853156 1.706311 0.853155 2.559466V443.854197l-15.3568 90.434493v1.706311c0 1.706311-0.853156 2.559467-0.853156 3.412622 0 0.853156-0.853156 0.853156-0.853155 1.706312-0.853156 0.853156-0.853156 1.706311-1.706312 2.559466 0 0.853156-0.853156 0.853156-0.853155 1.706312-0.853156 0.853156-0.853156 1.706311-1.706311 2.559466l-1.706312 1.706312c-0.853156 0.853156-1.706311 0.853156-2.559466 1.706311-0.853156 0.853156-0.853156 0.853156-1.706312 0.853155-0.853156 0.853156-1.706311 0.853156-2.559466 1.706311-0.853156 0-0.853156 0.853156-1.706312 0.853156s-1.706311 0.853156-3.412622 0.853156c-0.853156 0-0.853156 0-1.706311 0.853155-1.706311 0-3.412622 0.853156-5.118934 0.853156H369.629705c-5.972089 0-11.091023 5.118934-11.091023 11.091023v24.741512c0 5.972089 5.118934 11.091023 11.091023 11.091022h285.807123c5.972089 0 11.091023-5.118934 11.091023-11.091022v-24.741512c-0.853156-6.825245-5.118934-11.091023-11.091023-11.091023z" p-id="4198"></path><path d="M1001.817999 457.504687l-104.938138-104.938138V204.117476c0-42.65778-34.126224-76.784003-76.784003-76.784004H671.646785L566.708647 22.395334c-29.860446-29.860446-78.490315-29.860446-108.35076 0L352.566593 127.333472H204.11752c-42.65778 0-76.784003 34.126224-76.784003 76.784004v148.449073L22.395379 457.504687c-29.860446 29.860446-29.860446 78.490315 0 108.35076l104.938138 104.938138V819.242658c0 42.65778 34.126224 76.784003 76.784003 76.784003h148.449073l104.938138 104.938138c29.860446 29.860446 78.490315 29.860446 108.35076 0L670.793629 896.026661H819.242702c42.65778 0 76.784003-34.126224 76.784004-76.784003V671.64674l104.938137-104.938138c30.713601-29.860446 30.713601-79.34347 0.853156-109.203915zM672.49994 768.053322H351.713437c-16.209956 0-29.860446-12.797334-29.860445-29.860446s12.797334-29.860446 29.860445-29.860445h320.786503c16.209956 0 29.860446 12.797334 29.860446 29.860445S688.709897 768.053322 672.49994 768.053322z m48.629869-162.099562c0 29.00729-23.035201 52.042491-52.042491 52.042491H355.12606c-29.00729 0-52.042491-23.035201-52.042491-52.042491v-52.895647c0-29.00729 23.035201-52.042491 52.042491-52.042491h77.637159l8.531556-46.923558c-35.832535-23.888357-58.01458-64.839825-58.014581-107.497605 0-34.979379 13.650489-68.252447 39.245158-92.993959 25.594668-24.741512 58.867736-37.538846 93.847115-35.832535 63.133514 2.559467 116.029161 51.189336 123.707561 113.469694 5.972089 48.629869-16.209956 96.406582-57.161425 123.707561l8.531556 46.923557h77.637159c29.00729 0 52.042491 23.035201 52.042491 52.042491V605.95376z" p-id="4199"></path></svg>